<svg width="372" height="372" viewBox="0 0 372 372" fill="none" xmlns="http://www.w3.org/2000/svg">
<path d="M137.9 296.3C124.7 299.6 110.3 299 97.1 296.6C91.4 295.4 85.1 293.6 81.5 289.1C78.8 285.5 78.8 280.1 78.5 275.6C77.9 253.7 78.2 231.5 78.8 209.3C79.1 198.8 81.5 136.4 82.1 126.2C82.1 125 81.8 118.1 81.8 116.9C81.8 109.1 82.1 87.2 87.5 81.5C89.6 79.4 92.9 78.5 95.9 78.2C102.2 77 128.6 77.6 134.6 78.5C140 79.4 145.7 81.2 149 85.4C152.6 90.8 153.2 98 153.5 104.3C154.4 112.1 153.2 153.8 152.9 161.3C160.7 161.6 209 162.8 216.5 163.1C216.8 157.4 218.3 127.7 218 122.3C217.4 117.2 218.9 93.8 219.8 88.7C220.4 85.7 221.6 82.7 223.7 80.6C225.8 78.2 229.1 77.6 232.1 77C238.4 75.8 264.5 76.4 270.8 77.6C275.9 78.5 281.9 80.3 284.9 84.5C288.8 89.6 289.1 96.8 289.7 103.4C290.3 111.2 289.4 153.2 288.8 161C288.2 179.9 287.6 198.8 287.6 217.7C287.9 235.1 288.8 252.5 288.2 269.9C288.2 276.2 288.2 282.8 284.9 288.2C282.8 292.1 278.3 294.2 273.8 295.4C260.6 298.4 246.5 297.8 233.3 295.4C227.3 294.2 220.4 292.1 217.1 287C214.4 282.8 214.4 265.4 214.4 260C214.4 245.9 214.1 231.8 214.7 217.7C193.7 217.4 172.7 216.5 151.7 215.9C151.7 234.2 152.6 252.8 152 271.1C152 277.4 152 284 149 289.4C146.6 293 142.1 295.4 137.9 296.3Z" fill="#43E97B"/>
</svg>
