<svg width="137" height="37" viewBox="0 0 137 37" fill="none" xmlns="http://www.w3.org/2000/svg">
<path d="M9.704 35.528C7.592 36.056 5.288 35.96 3.176 35.576C2.264 35.384 1.256 35.096 0.68 34.376C0.248 33.8 0.248 32.936 0.2 32.216C0.104 28.712 0.152 25.16 0.248 21.608C0.296 19.928 0.68 9.944 0.776 8.312C0.776 8.12 0.728 7.016 0.728 6.824C0.728 5.576 0.776 2.072 1.64 1.16C1.976 0.823999 2.504 0.679998 2.984 0.631999C3.992 0.439999 8.216 0.535997 9.176 0.679998C10.04 0.823999 10.952 1.112 11.48 1.784C12.056 2.648 12.152 3.8 12.2 4.808C12.344 6.056 12.152 12.728 12.104 13.928C13.352 13.976 21.08 14.168 22.28 14.216C22.328 13.304 22.568 8.552 22.52 7.688C22.424 6.872 22.664 3.128 22.808 2.312C22.904 1.832 23.096 1.352 23.432 1.016C23.768 0.631999 24.296 0.535997 24.776 0.439999C25.784 0.247998 29.96 0.343997 30.968 0.535997C31.784 0.679998 32.744 0.967998 33.224 1.64C33.848 2.456 33.896 3.608 33.992 4.664C34.088 5.912 33.944 12.632 33.848 13.88C33.752 16.904 33.656 19.928 33.656 22.952C33.704 25.736 33.848 28.52 33.752 31.304C33.752 32.312 33.752 33.368 33.224 34.232C32.888 34.856 32.168 35.192 31.448 35.384C29.336 35.864 27.08 35.768 24.968 35.384C24.008 35.192 22.904 34.856 22.376 34.04C21.944 33.368 21.944 30.584 21.944 29.72C21.944 27.464 21.896 25.208 21.992 22.952C18.632 22.904 15.272 22.76 11.912 22.664C11.912 25.592 12.056 28.568 11.96 31.496C11.96 32.504 11.96 33.56 11.48 34.424C11.096 35 10.376 35.384 9.704 35.528ZM66.5315 34.568C65.0435 35.864 60.3875 36.248 58.4195 35.816C57.9875 35.72 57.4595 35.576 57.1235 35.24C56.3075 34.52 56.2595 31.544 56.2115 30.488C55.5395 30.2 54.8195 30.056 54.0995 29.912C51.4595 29.432 48.6275 29.48 45.9395 29.864C45.9395 30.008 45.7475 30.68 45.7475 30.824C45.6515 31.832 45.3635 34.616 44.6435 35.288C44.0675 35.816 42.2435 36.008 41.5235 35.912C40.1315 35.72 38.6915 35.72 37.3475 35.24C36.7235 35.048 36.0515 34.712 35.6195 34.232C35.2355 33.848 34.9955 33.272 34.9475 32.744C34.8995 31.304 35.4755 29.864 35.9075 28.472C36.3875 26.84 39.7955 17.288 40.3715 15.704C41.5715 12.584 42.9155 9.512 44.3555 6.536C44.5955 5.96 44.8355 5.384 45.1715 4.856C45.7955 3.704 46.4675 2.552 47.4755 1.688C48.6755 0.727998 50.4515 0.535997 51.9395 0.631999C52.6115 0.679998 55.9235 0.871999 56.5475 1.016C57.2195 1.16 57.9875 1.304 58.5155 1.784C59.2355 2.36 59.5715 3.32 59.8595 4.184C60.0035 4.616 60.7715 7.4 60.9155 7.832C61.7315 10.328 62.4995 12.872 63.1235 15.416C63.7955 18.056 64.3715 20.696 65.2355 23.24C65.6195 24.344 67.2995 30.152 67.4915 31.304C67.4915 31.4 67.4435 31.688 67.4435 31.784C67.5875 32.744 67.2995 33.944 66.5315 34.568ZM47.6675 23C50.2115 22.952 52.7555 23.144 55.2515 23.384C54.5315 19.208 53.4275 15.08 52.0835 11.048C50.2595 14.84 48.8675 18.92 47.6675 23ZM78.0946 35.768C75.9826 36.296 73.6786 36.152 71.5666 35.768C70.6546 35.624 69.6466 35.288 69.0706 34.568C68.6386 33.992 68.6386 33.176 68.5906 32.456C68.4946 28.904 68.5426 25.352 68.6386 21.8C68.6866 20.168 69.0706 10.184 69.1666 8.552C69.1666 8.36 69.1186 7.208 69.1186 7.016C69.1186 5.768 69.1666 2.312 70.0306 1.4C70.8466 0.584 74.0626 0.727998 75.2146 0.727998C77.3266 0.679998 89.1346 0.487998 91.2466 0.631999C91.8706 0.631999 92.4466 0.727998 93.0706 0.823999C93.6466 0.967998 94.2706 1.16 94.6066 1.64C95.0866 2.312 95.0866 3.272 95.1346 4.136C95.1826 5.576 95.0866 8.84 93.9826 9.704C93.4546 10.136 92.7346 10.232 92.0626 10.28C90.3826 10.424 88.6546 10.088 86.9746 9.896C84.8626 9.704 82.7506 9.608 80.5906 9.56C80.5906 11.336 80.5426 13.16 80.4466 14.936C82.9906 14.84 85.5346 14.888 88.0786 15.08C89.0866 15.128 90.2866 15.224 91.0546 15.944C92.0626 16.904 91.9186 20.024 91.6306 21.416C91.5346 21.944 91.2946 22.472 90.8146 22.808C90.2866 23.192 89.5186 23.24 88.8466 23.24C85.9666 23.384 83.1346 22.904 80.3026 22.904C80.3026 25.832 80.4466 28.76 80.3506 31.736C80.3506 32.696 80.3506 33.8 79.8706 34.616C79.4866 35.24 78.7666 35.624 78.0946 35.768ZM105.798 35.768C103.686 36.296 101.382 36.152 99.2698 35.768C98.3578 35.624 97.3498 35.288 96.7738 34.568C96.3418 33.992 96.3418 33.176 96.2938 32.456C96.1978 28.904 96.2458 25.352 96.3418 21.8C96.3898 20.168 96.7738 10.184 96.8698 8.552C96.8698 8.36 96.8218 7.208 96.8218 7.016C96.8218 5.768 96.8698 2.312 97.7338 1.4C98.5498 0.584 101.766 0.727998 102.918 0.727998C105.03 0.679998 116.838 0.487998 118.95 0.631999C119.574 0.631999 120.15 0.727998 120.774 0.823999C121.35 0.967998 121.974 1.16 122.31 1.64C122.79 2.312 122.79 3.272 122.838 4.136C122.886 5.576 122.79 8.84 121.686 9.704C121.158 10.136 120.438 10.232 119.766 10.28C118.086 10.424 116.358 10.088 114.678 9.896C112.566 9.704 110.454 9.608 108.294 9.56C108.294 11.336 108.246 13.16 108.15 14.936C110.694 14.84 113.238 14.888 115.782 15.08C116.79 15.128 117.99 15.224 118.758 15.944C119.766 16.904 119.622 20.024 119.334 21.416C119.238 21.944 118.998 22.472 118.518 22.808C117.99 23.192 117.222 23.24 116.55 23.24C113.67 23.384 110.838 22.904 108.006 22.904C108.006 25.832 108.15 28.76 108.054 31.736C108.054 32.696 108.054 33.8 107.574 34.616C107.19 35.24 106.47 35.624 105.798 35.768ZM133.501 35.384C131.389 35.864 129.085 35.768 126.973 35.384C126.061 35.24 125.053 34.904 124.477 34.184C124.045 33.608 124.045 32.792 123.997 32.072C123.901 28.52 123.949 24.968 124.045 21.416C124.093 19.784 124.477 9.8 124.573 8.12C124.573 7.928 124.525 6.824 124.525 6.632C124.525 5.384 124.573 1.928 125.437 1.016C125.773 0.679998 126.301 0.535997 126.781 0.439999C127.789 0.295998 132.013 0.343997 132.973 0.535997C133.837 0.679998 134.749 0.967998 135.277 1.64C135.853 2.456 135.949 3.608 135.997 4.664C136.141 5.912 135.949 12.632 135.901 13.928C135.757 16.952 135.709 19.928 135.709 22.952C135.709 25.736 135.853 28.568 135.757 31.352C135.757 32.312 135.757 33.416 135.277 34.232C134.893 34.856 134.173 35.24 133.501 35.384Z" fill="url(#paint0_linear_348_5)"/>
<defs>
<linearGradient id="paint0_linear_348_5" x1="0.507228" y1="5.58333" x2="125.708" y2="53.8376" gradientUnits="userSpaceOnUse">
<stop stop-color="#43E97B"/>
<stop offset="1" stop-color="#65D90A"/>
</linearGradient>
</defs>
</svg>
